<svg width="20" height="20" viewBox="0 0 20 20" fill="none" xmlns="http://www.w3.org/2000/svg">
<path d="M16.6666 8.33334C16.6666 13.3333 9.99992 18.3333 9.99992 18.3333C9.99992 18.3333 3.33325 13.3333 3.33325 8.33334C3.33325 6.56523 4.03563 4.86954 5.28587 3.61929C6.53612 2.36905 8.23181 1.66667 9.99992 1.66667C11.768 1.66667 13.4637 2.36905 14.714 3.61929C15.9642 4.86954 16.6666 6.56523 16.6666 8.33334Z" stroke="#A1A1AA" stroke-width="1.25" stroke-linecap="round" stroke-linejoin="round"/>
<path d="M9.99992 10.8333C11.3806 10.8333 12.4999 9.71405 12.4999 8.33334C12.4999 6.95263 11.3806 5.83334 9.99992 5.83334C8.61921 5.83334 7.49992 6.95263 7.49992 8.33334C7.49992 9.71405 8.61921 10.8333 9.99992 10.8333Z" stroke="#A1A1AA" stroke-width="1.25" stroke-linecap="round" stroke-linejoin="round"/>
</svg>
