<svg width="20" height="20" viewBox="0 0 20 20" fill="none" xmlns="http://www.w3.org/2000/svg">
<path d="M10.4884 2.15499C10.1759 1.84241 9.75207 1.66675 9.31008 1.66666H3.33341C2.89139 1.66666 2.46746 1.84225 2.1549 2.15481C1.84234 2.46737 1.66675 2.8913 1.66675 3.33332V9.30999C1.66684 9.75198 1.8425 10.1758 2.15508 10.4883L9.40842 17.7417C9.78718 18.118 10.2995 18.3293 10.8334 18.3293C11.3674 18.3293 11.8797 18.118 12.2584 17.7417L17.7417 12.2583C18.1181 11.8796 18.3294 11.3673 18.3294 10.8333C18.3294 10.2994 18.1181 9.78708 17.7417 9.40832L10.4884 2.15499Z" stroke="#A1A1AA" stroke-width="1.25" stroke-linecap="round" stroke-linejoin="round"/>
<path d="M6.25008 6.66666C6.4802 6.66666 6.66675 6.48011 6.66675 6.24999C6.66675 6.01987 6.4802 5.83332 6.25008 5.83332C6.01996 5.83332 5.83341 6.01987 5.83341 6.24999C5.83341 6.48011 6.01996 6.66666 6.25008 6.66666Z" stroke="#A1A1AA" stroke-width="1.25" stroke-linecap="round" stroke-linejoin="round"/>
</svg>
